<mxfile host="app.diagrams.net" modified="2020-08-25T08:13:36.365Z" agent="5.0 (Windows NT 10.0; Win64; x64) AppleWebKit/537.36 (KHTML, like Gecko) Chrome/84.0.4147.135 Safari/537.36" etag="GmJ1sWrp7xzPEg_WpPu8" version="13.6.4" type="github">
  <diagram id="9QdzUBk_pN5CytV8guwH" name="Page-1">
    <mxGraphModel dx="2035" dy="635" grid="1" gridSize="10" guides="1" tooltips="1" connect="1" arrows="1" fold="1" page="1" pageScale="1" pageWidth="850" pageHeight="1100" math="0" shadow="0">
      <root>
        <mxCell id="0" />
        <mxCell id="1" parent="0" />
        <mxCell id="SU6Ed6Ec--QNHVM8Q3yd-23" value="&lt;div style=&quot;text-align: center&quot;&gt;&lt;span&gt;&lt;font face=&quot;helvetica&quot; style=&quot;font-size: 24px&quot;&gt;&lt;b&gt;Worker Thread&lt;/b&gt;&lt;/font&gt;&lt;/span&gt;&lt;/div&gt;" style="text;whiteSpace=wrap;html=1;" parent="1" vertex="1">
          <mxGeometry x="910" y="10" width="230" height="30" as="geometry" />
        </mxCell>
        <mxCell id="SU6Ed6Ec--QNHVM8Q3yd-24" value="" style="strokeWidth=2;html=1;shape=mxgraph.flowchart.start_2;whiteSpace=wrap;" parent="1" vertex="1">
          <mxGeometry x="30" y="35" width="135" height="110" as="geometry" />
        </mxCell>
        <mxCell id="SU6Ed6Ec--QNHVM8Q3yd-25" value="&lt;div style=&quot;box-sizing: border-box ; font-style: normal ; letter-spacing: normal ; text-indent: 0px ; text-transform: none ; word-spacing: 0px&quot;&gt;&lt;font style=&quot;font-size: 24px&quot;&gt;&lt;b&gt;Main Thread&amp;nbsp;&lt;/b&gt;&lt;/font&gt;&lt;/div&gt;" style="text;whiteSpace=wrap;html=1;" parent="1" vertex="1">
          <mxGeometry x="160" y="10" width="220" height="30" as="geometry" />
        </mxCell>
        <mxCell id="SU6Ed6Ec--QNHVM8Q3yd-27" value="" style="rounded=1;whiteSpace=wrap;html=1;absoluteArcSize=1;arcSize=14;strokeWidth=2;" parent="1" vertex="1">
          <mxGeometry x="30" y="300" width="140" height="90" as="geometry" />
        </mxCell>
        <mxCell id="SU6Ed6Ec--QNHVM8Q3yd-28" value="" style="strokeWidth=2;html=1;shape=mxgraph.flowchart.database;whiteSpace=wrap;" parent="1" vertex="1">
          <mxGeometry x="270" y="60" width="60" height="60" as="geometry" />
        </mxCell>
        <mxCell id="SU6Ed6Ec--QNHVM8Q3yd-34" value="" style="endArrow=classic;html=1;entryX=0.985;entryY=0.642;entryDx=0;entryDy=0;entryPerimeter=0;exitX=-0.017;exitY=0.75;exitDx=0;exitDy=0;exitPerimeter=0;" parent="1" target="SU6Ed6Ec--QNHVM8Q3yd-24" edge="1" source="SU6Ed6Ec--QNHVM8Q3yd-28">
          <mxGeometry width="50" height="50" relative="1" as="geometry">
            <mxPoint x="240" y="187" as="sourcePoint" />
            <mxPoint x="450" y="270" as="targetPoint" />
          </mxGeometry>
        </mxCell>
        <mxCell id="SU6Ed6Ec--QNHVM8Q3yd-38" value="&lt;h1&gt;yfiles&lt;br&gt;&lt;br&gt;&lt;div style=&quot;box-sizing: border-box ; font-family: &amp;#34;segoe ui&amp;#34; , , &amp;#34;apple color emoji&amp;#34; , &amp;#34;segoe ui emoji&amp;#34; , sans-serif ; font-size: 14px ; font-weight: 400&quot;&gt;Initial configuration&lt;/div&gt;&lt;div style=&quot;box-sizing: border-box ; font-family: &amp;#34;segoe ui&amp;#34; , , &amp;#34;apple color emoji&amp;#34; , &amp;#34;segoe ui emoji&amp;#34; , sans-serif ; font-size: 14px ; font-weight: 400&quot;&gt;&lt;br&gt;&lt;/div&gt;&lt;/h1&gt;" style="text;html=1;strokeColor=none;fillColor=none;spacing=5;spacingTop=-20;whiteSpace=wrap;overflow=hidden;rounded=0;" parent="1" vertex="1">
          <mxGeometry x="37.5" y="300" width="132.5" height="90" as="geometry" />
        </mxCell>
        <mxCell id="SU6Ed6Ec--QNHVM8Q3yd-39" value="&lt;h1&gt;&lt;font face=&quot;Times New Roman&quot;&gt;UI Layer&lt;/font&gt;&lt;/h1&gt;&lt;p&gt;&lt;br&gt;&lt;/p&gt;" style="text;html=1;strokeColor=none;fillColor=none;spacing=5;spacingTop=-20;whiteSpace=wrap;overflow=hidden;rounded=0;" parent="1" vertex="1">
          <mxGeometry x="48.75" y="75" width="110" height="30" as="geometry" />
        </mxCell>
        <mxCell id="SU6Ed6Ec--QNHVM8Q3yd-42" value="&lt;b&gt;&lt;font style=&quot;font-size: 18px&quot;&gt;DB&lt;/font&gt;&lt;/b&gt;" style="text;html=1;strokeColor=none;fillColor=none;align=center;verticalAlign=middle;whiteSpace=wrap;rounded=0;" parent="1" vertex="1">
          <mxGeometry x="280" y="90" width="40" height="20" as="geometry" />
        </mxCell>
        <mxCell id="SU6Ed6Ec--QNHVM8Q3yd-43" value="" style="endArrow=classic;html=1;entryX=0.449;entryY=-0.033;entryDx=0;entryDy=0;entryPerimeter=0;" parent="1" source="SU6Ed6Ec--QNHVM8Q3yd-24" target="SU6Ed6Ec--QNHVM8Q3yd-38" edge="1">
          <mxGeometry width="50" height="50" relative="1" as="geometry">
            <mxPoint x="400" y="290" as="sourcePoint" />
            <mxPoint x="98" y="290" as="targetPoint" />
          </mxGeometry>
        </mxCell>
        <mxCell id="SU6Ed6Ec--QNHVM8Q3yd-44" value="" style="rounded=1;whiteSpace=wrap;html=1;absoluteArcSize=1;arcSize=14;strokeWidth=2;" parent="1" vertex="1">
          <mxGeometry x="360" y="45" width="220" height="215" as="geometry" />
        </mxCell>
        <mxCell id="SU6Ed6Ec--QNHVM8Q3yd-45" value="&lt;h1&gt;&lt;font style=&quot;font-size: 18px&quot;&gt;Worker registration and execution&lt;/font&gt;&lt;/h1&gt;&lt;p&gt;&lt;/p&gt;&lt;ul&gt;&lt;li&gt;&lt;font style=&quot;font-size: 14px&quot;&gt;Register events for worker.onmessage and worker.onerror&lt;/font&gt;&lt;/li&gt;&lt;li&gt;&lt;font style=&quot;font-size: 14px&quot;&gt;Call Web-Worker&#39;s postMessage with JsonGraph as input&amp;nbsp;&lt;/font&gt;&lt;/li&gt;&lt;/ul&gt;&lt;p&gt;&lt;/p&gt;" style="text;html=1;strokeColor=none;fillColor=none;spacing=5;spacingTop=-20;whiteSpace=wrap;overflow=hidden;rounded=0;" parent="1" vertex="1">
          <mxGeometry x="360" y="40" width="200" height="205" as="geometry" />
        </mxCell>
        <mxCell id="6da-uUpZBTQ7iaTcaTkT-2" value="" style="rounded=1;whiteSpace=wrap;html=1;absoluteArcSize=1;arcSize=14;strokeWidth=2;" vertex="1" parent="1">
          <mxGeometry x="340" y="420" width="240" height="240" as="geometry" />
        </mxCell>
        <mxCell id="6da-uUpZBTQ7iaTcaTkT-3" value="&lt;h1&gt;&lt;font style=&quot;font-size: 18px&quot;&gt;Post Worker task execution&lt;/font&gt;&lt;/h1&gt;&lt;p&gt;&lt;/p&gt;&lt;ul&gt;&lt;li&gt;&lt;div style=&quot;box-sizing: border-box&quot;&gt;&lt;font style=&quot;font-size: 14px&quot;&gt;Update the actual graphcomponent &amp;nbsp;with updated JsonGraph&lt;/font&gt;&lt;/div&gt;&lt;/li&gt;&lt;li&gt;&lt;div style=&quot;box-sizing: border-box&quot;&gt;&lt;font style=&quot;font-size: 14px&quot;&gt;&amp;nbsp;Invoke the rendring using yfile IAnimation with parallel anymation of graphcomponent&lt;/font&gt;&lt;/div&gt;&lt;/li&gt;&lt;li&gt;&lt;div style=&quot;box-sizing: border-box&quot;&gt;&lt;div style=&quot;box-sizing: border-box&quot;&gt;&lt;font style=&quot;font-size: 14px&quot;&gt;Terminate the worker&lt;/font&gt;&lt;/div&gt;&lt;/div&gt;&lt;/li&gt;&lt;/ul&gt;&lt;p&gt;&lt;/p&gt;" style="text;html=1;strokeColor=none;fillColor=none;spacing=5;spacingTop=-20;whiteSpace=wrap;overflow=hidden;rounded=0;" vertex="1" parent="1">
          <mxGeometry x="340" y="410" width="200" height="220" as="geometry" />
        </mxCell>
        <mxCell id="6da-uUpZBTQ7iaTcaTkT-5" value="" style="rounded=1;whiteSpace=wrap;html=1;absoluteArcSize=1;arcSize=14;strokeWidth=2;" vertex="1" parent="1">
          <mxGeometry x="1115" y="170" width="320" height="260" as="geometry" />
        </mxCell>
        <mxCell id="6da-uUpZBTQ7iaTcaTkT-7" value="" style="verticalLabelPosition=bottom;verticalAlign=top;html=1;shape=hexagon;perimeter=hexagonPerimeter2;arcSize=6;size=0.27;" vertex="1" parent="1">
          <mxGeometry x="630" y="296.25" width="240" height="90" as="geometry" />
        </mxCell>
        <mxCell id="6da-uUpZBTQ7iaTcaTkT-9" value="&lt;h1 style=&quot;text-align: center&quot;&gt;&lt;font style=&quot;font-size: 14px&quot;&gt;EDC WW Utility&lt;/font&gt;&lt;/h1&gt;&lt;p&gt;&lt;/p&gt;&lt;ul&gt;&lt;li&gt;WebWorkerJsonIO&lt;/li&gt;&lt;li&gt;graphBuilder_JsonIO&lt;/li&gt;&lt;/ul&gt;&lt;p&gt;&lt;/p&gt;" style="text;html=1;strokeColor=none;fillColor=none;spacing=5;spacingTop=-20;whiteSpace=wrap;overflow=hidden;rounded=0;" vertex="1" parent="1">
          <mxGeometry x="660" y="296.25" width="160" height="83.75" as="geometry" />
        </mxCell>
        <mxCell id="6da-uUpZBTQ7iaTcaTkT-14" value="&lt;span style=&quot;color: rgb(0 , 0 , 0) ; font-family: &amp;#34;helvetica&amp;#34; ; font-size: 12px ; font-style: normal ; font-weight: 400 ; letter-spacing: normal ; text-align: left ; text-indent: 0px ; text-transform: none ; word-spacing: 0px ; background-color: rgb(248 , 249 , 250) ; display: inline ; float: none&quot;&gt;WriteJson :&lt;br&gt;Extract initial layout information from the graphComponent and creates JsonGraph&lt;br&gt;&lt;br&gt;ReadJson : Convert updated JsonGraph to Yfile graph&amp;nbsp;&lt;br&gt;&lt;br&gt;&lt;br&gt;&lt;/span&gt;" style="text;whiteSpace=wrap;html=1;" vertex="1" parent="1">
          <mxGeometry x="125" y="820" width="250" height="100" as="geometry" />
        </mxCell>
        <mxCell id="6da-uUpZBTQ7iaTcaTkT-19" value="&lt;b&gt;&lt;font style=&quot;font-size: 12px&quot;&gt;graphComponent&lt;/font&gt;&lt;/b&gt;" style="text;html=1;strokeColor=none;fillColor=none;align=center;verticalAlign=middle;whiteSpace=wrap;rounded=0;" vertex="1" parent="1">
          <mxGeometry x="350" y="320" width="30" height="20" as="geometry" />
        </mxCell>
        <mxCell id="6da-uUpZBTQ7iaTcaTkT-21" value="" style="endArrow=classic;html=1;entryX=0;entryY=0.5;entryDx=0;entryDy=0;" edge="1" parent="1" source="SU6Ed6Ec--QNHVM8Q3yd-38" target="6da-uUpZBTQ7iaTcaTkT-7">
          <mxGeometry width="50" height="50" relative="1" as="geometry">
            <mxPoint x="420" y="390" as="sourcePoint" />
            <mxPoint x="470" y="340" as="targetPoint" />
          </mxGeometry>
        </mxCell>
        <mxCell id="6da-uUpZBTQ7iaTcaTkT-24" value="&lt;span style=&quot;color: rgb(0 , 0 , 0) ; font-family: &amp;#34;helvetica&amp;#34; ; font-size: 12px ; font-style: normal ; letter-spacing: normal ; text-align: left ; text-indent: 0px ; text-transform: none ; word-spacing: 0px ; background-color: rgb(248 , 249 , 250) ; display: inline ; float: none&quot;&gt;&lt;b&gt;JsonGraph&lt;/b&gt;&lt;/span&gt;" style="text;whiteSpace=wrap;html=1;" vertex="1" parent="1">
          <mxGeometry x="610" y="150" width="80" height="20" as="geometry" />
        </mxCell>
        <mxCell id="6da-uUpZBTQ7iaTcaTkT-29" value="&lt;span style=&quot;color: rgb(0 , 0 , 0) ; font-family: &amp;#34;helvetica&amp;#34; ; font-size: 12px ; font-style: normal ; font-weight: 400 ; letter-spacing: normal ; text-align: left ; text-indent: 0px ; text-transform: none ; word-spacing: 0px ; background-color: rgb(248 , 249 , 250) ; display: inline ; float: none&quot;&gt;JsonGraph holds the information about nodes and edges in JSON format&lt;/span&gt;" style="text;whiteSpace=wrap;html=1;" vertex="1" parent="1">
          <mxGeometry x="130" y="940" width="240" height="40" as="geometry" />
        </mxCell>
        <mxCell id="6da-uUpZBTQ7iaTcaTkT-30" value="&lt;h1 style=&quot;color: rgb(0 , 0 , 0) ; font-family: &amp;#34;helvetica&amp;#34; ; font-style: normal ; letter-spacing: normal ; text-indent: 0px ; text-transform: none ; word-spacing: 0px ; background-color: rgb(248 , 249 , 250) ; text-align: center&quot;&gt;&lt;font style=&quot;font-size: 12px&quot;&gt;EDC WW Utility&lt;/font&gt;&lt;/h1&gt;" style="text;whiteSpace=wrap;html=1;" vertex="1" parent="1">
          <mxGeometry x="-5" y="820" width="130" height="30" as="geometry" />
        </mxCell>
        <mxCell id="6da-uUpZBTQ7iaTcaTkT-31" value="&lt;b style=&quot;color: rgb(0, 0, 0); font-family: helvetica; font-size: 12px; font-style: normal; letter-spacing: normal; text-align: left; text-indent: 0px; text-transform: none; word-spacing: 0px;&quot;&gt;JsonGraph&lt;/b&gt;" style="text;whiteSpace=wrap;html=1;" vertex="1" parent="1">
          <mxGeometry x="10" y="945" width="90" height="30" as="geometry" />
        </mxCell>
        <mxCell id="6da-uUpZBTQ7iaTcaTkT-83" value="" style="endArrow=classic;html=1;entryX=0.569;entryY=-0.019;entryDx=0;entryDy=0;entryPerimeter=0;" edge="1" parent="1" target="6da-uUpZBTQ7iaTcaTkT-5">
          <mxGeometry width="50" height="50" relative="1" as="geometry">
            <mxPoint x="580" y="120" as="sourcePoint" />
            <mxPoint x="830" y="90" as="targetPoint" />
            <Array as="points">
              <mxPoint x="1297" y="120" />
            </Array>
          </mxGeometry>
        </mxCell>
        <mxCell id="6da-uUpZBTQ7iaTcaTkT-84" value="&lt;span style=&quot;color: rgb(0 , 0 , 0) ; font-family: &amp;#34;helvetica&amp;#34; ; font-size: 12px ; font-style: normal ; letter-spacing: normal ; text-align: left ; text-indent: 0px ; text-transform: none ; word-spacing: 0px ; background-color: rgb(248 , 249 , 250) ; display: inline ; float: none&quot;&gt;&lt;b&gt;JsonGraph&lt;/b&gt;&lt;/span&gt;" style="text;whiteSpace=wrap;html=1;" vertex="1" parent="1">
          <mxGeometry x="700" y="80" width="80" height="20" as="geometry" />
        </mxCell>
        <mxCell id="6da-uUpZBTQ7iaTcaTkT-85" value="&lt;h1&gt;&lt;font style=&quot;font-size: 18px&quot;&gt;Task execution in worker thread&lt;/font&gt;&lt;/h1&gt;&lt;p&gt;&lt;/p&gt;&lt;ul&gt;&lt;li&gt;Worker listener JsonGraph)&lt;/li&gt;&lt;li&gt;Create Psudo graphcomponent using EDC WW utility&lt;/li&gt;&lt;li&gt;&lt;div style=&quot;box-sizing: border-box ; font-family: &amp;#34;segoe ui&amp;#34; , , &amp;#34;apple color emoji&amp;#34; , &amp;#34;segoe ui emoji&amp;#34; , sans-serif ; font-size: 14px&quot;&gt;Run Layout Algorithm on Psudo graphcomponent&lt;/div&gt;&lt;/li&gt;&lt;li&gt;&lt;div style=&quot;box-sizing: border-box ; font-family: &amp;#34;segoe ui&amp;#34; , , &amp;#34;apple color emoji&amp;#34; , &amp;#34;segoe ui emoji&amp;#34; , sans-serif ; font-size: 14px&quot;&gt;&lt;div style=&quot;box-sizing: border-box&quot;&gt;Extract (Position, insets and bends) then update JsonGraph with additinal details&lt;/div&gt;&lt;/div&gt;&lt;/li&gt;&lt;/ul&gt;&lt;p&gt;&lt;/p&gt;" style="text;html=1;strokeColor=none;fillColor=none;spacing=5;spacingTop=-20;whiteSpace=wrap;overflow=hidden;rounded=0;fontSize=16;" vertex="1" parent="1">
          <mxGeometry x="1115" y="160" width="285" height="210" as="geometry" />
        </mxCell>
        <mxCell id="6da-uUpZBTQ7iaTcaTkT-86" value="" style="endArrow=classic;html=1;entryX=1;entryY=0.5;entryDx=0;entryDy=0;exitX=-0.003;exitY=0.869;exitDx=0;exitDy=0;exitPerimeter=0;" edge="1" parent="1" source="6da-uUpZBTQ7iaTcaTkT-85" target="6da-uUpZBTQ7iaTcaTkT-7">
          <mxGeometry width="50" height="50" relative="1" as="geometry">
            <mxPoint x="1110" y="341" as="sourcePoint" />
            <mxPoint x="720" y="360" as="targetPoint" />
            <Array as="points" />
          </mxGeometry>
        </mxCell>
        <mxCell id="6da-uUpZBTQ7iaTcaTkT-88" value="&lt;span style=&quot;color: rgb(0 , 0 , 0) ; font-family: &amp;#34;helvetica&amp;#34; ; font-size: 12px ; font-style: normal ; letter-spacing: normal ; text-align: left ; text-indent: 0px ; text-transform: none ; word-spacing: 0px ; background-color: rgb(248 , 249 , 250) ; display: inline ; float: none&quot;&gt;&lt;b&gt;JsonGraph&lt;/b&gt;&lt;/span&gt;" style="text;whiteSpace=wrap;html=1;" vertex="1" parent="1">
          <mxGeometry x="1010" y="310" width="80" height="20" as="geometry" />
        </mxCell>
        <mxCell id="6da-uUpZBTQ7iaTcaTkT-90" value="&lt;b style=&quot;font-family: &amp;#34;helvetica&amp;#34;&quot;&gt;Psudo graphComponent&lt;/b&gt;" style="text;html=1;strokeColor=none;fillColor=none;align=center;verticalAlign=middle;whiteSpace=wrap;rounded=0;" vertex="1" parent="1">
          <mxGeometry x="920" y="215" width="160" height="20" as="geometry" />
        </mxCell>
        <mxCell id="6da-uUpZBTQ7iaTcaTkT-91" value="&lt;b style=&quot;color: rgb(0 , 0 , 0) ; font-family: &amp;#34;helvetica&amp;#34; ; font-size: 12px ; font-style: normal ; letter-spacing: normal ; text-align: center ; text-indent: 0px ; text-transform: none ; word-spacing: 0px ; background-color: rgb(248 , 249 , 250)&quot;&gt;&lt;font style=&quot;font-size: 12px&quot;&gt;Updated Psudo graphComponent&lt;/font&gt;&lt;/b&gt;" style="text;whiteSpace=wrap;html=1;" vertex="1" parent="1">
          <mxGeometry x="900" y="350" width="200" height="20" as="geometry" />
        </mxCell>
        <mxCell id="6da-uUpZBTQ7iaTcaTkT-92" value="" style="endArrow=classic;html=1;entryX=1;entryY=0.583;entryDx=0;entryDy=0;entryPerimeter=0;exitX=0.594;exitY=1;exitDx=0;exitDy=0;exitPerimeter=0;" edge="1" parent="1" source="6da-uUpZBTQ7iaTcaTkT-5" target="6da-uUpZBTQ7iaTcaTkT-2">
          <mxGeometry width="50" height="50" relative="1" as="geometry">
            <mxPoint x="1310" y="560" as="sourcePoint" />
            <mxPoint x="590" y="560" as="targetPoint" />
            <Array as="points">
              <mxPoint x="1305" y="560" />
              <mxPoint x="690" y="560" />
            </Array>
          </mxGeometry>
        </mxCell>
        <mxCell id="6da-uUpZBTQ7iaTcaTkT-93" value="&lt;b style=&quot;font-family: &amp;#34;helvetica&amp;#34;&quot;&gt;Updated JsonGraph&lt;/b&gt;" style="text;whiteSpace=wrap;html=1;" vertex="1" parent="1">
          <mxGeometry x="950" y="535" width="140" height="20" as="geometry" />
        </mxCell>
        <mxCell id="6da-uUpZBTQ7iaTcaTkT-94" value="" style="endArrow=classic;html=1;entryX=0.278;entryY=1.008;entryDx=0;entryDy=0;entryPerimeter=0;" edge="1" parent="1" target="6da-uUpZBTQ7iaTcaTkT-5">
          <mxGeometry width="50" height="50" relative="1" as="geometry">
            <mxPoint x="730" y="391" as="sourcePoint" />
            <mxPoint x="1200" y="480" as="targetPoint" />
            <Array as="points">
              <mxPoint x="730" y="480" />
              <mxPoint x="1204" y="480" />
            </Array>
          </mxGeometry>
        </mxCell>
        <mxCell id="6da-uUpZBTQ7iaTcaTkT-95" value="&lt;b style=&quot;color: rgb(0 , 0 , 0) ; font-family: &amp;#34;helvetica&amp;#34; ; font-size: 12px ; font-style: normal ; letter-spacing: normal ; text-align: left ; text-indent: 0px ; text-transform: none ; word-spacing: 0px&quot;&gt;Updated JsonGraph&lt;/b&gt;" style="text;whiteSpace=wrap;html=1;" vertex="1" parent="1">
          <mxGeometry x="970" y="440" width="130" height="30" as="geometry" />
        </mxCell>
        <mxCell id="6da-uUpZBTQ7iaTcaTkT-97" value="" style="endArrow=classic;html=1;exitX=-0.015;exitY=0.604;exitDx=0;exitDy=0;exitPerimeter=0;entryX=0.306;entryY=1.022;entryDx=0;entryDy=0;entryPerimeter=0;" edge="1" parent="1" source="6da-uUpZBTQ7iaTcaTkT-2" target="SU6Ed6Ec--QNHVM8Q3yd-38">
          <mxGeometry width="50" height="50" relative="1" as="geometry">
            <mxPoint x="620" y="380" as="sourcePoint" />
            <mxPoint x="670" y="330" as="targetPoint" />
            <Array as="points">
              <mxPoint x="78" y="565" />
            </Array>
          </mxGeometry>
        </mxCell>
        <mxCell id="6da-uUpZBTQ7iaTcaTkT-100" value="" style="endArrow=classic;html=1;entryX=0.311;entryY=0.958;entryDx=0;entryDy=0;entryPerimeter=0;" edge="1" parent="1" target="SU6Ed6Ec--QNHVM8Q3yd-24">
          <mxGeometry width="50" height="50" relative="1" as="geometry">
            <mxPoint x="72" y="298" as="sourcePoint" />
            <mxPoint x="100" y="250" as="targetPoint" />
            <Array as="points">
              <mxPoint x="72" y="190" />
            </Array>
          </mxGeometry>
        </mxCell>
        <mxCell id="6da-uUpZBTQ7iaTcaTkT-102" value="&lt;b style=&quot;color: rgb(0 , 0 , 0) ; font-size: 12px ; font-style: normal ; letter-spacing: normal ; text-indent: 0px ; text-transform: none ; word-spacing: 0px ; font-family: &amp;#34;helvetica&amp;#34; ; text-align: center ; background-color: rgb(248 , 249 , 250)&quot;&gt;&lt;font style=&quot;font-size: 12px&quot;&gt;Updated graphComponent&lt;/font&gt;&lt;/b&gt;" style="text;whiteSpace=wrap;html=1;" vertex="1" parent="1">
          <mxGeometry x="130" y="535" width="170" height="30" as="geometry" />
        </mxCell>
        <mxCell id="6da-uUpZBTQ7iaTcaTkT-104" value="" style="endArrow=classic;html=1;exitX=0.583;exitY=-0.014;exitDx=0;exitDy=0;exitPerimeter=0;" edge="1" parent="1" source="6da-uUpZBTQ7iaTcaTkT-7">
          <mxGeometry width="50" height="50" relative="1" as="geometry">
            <mxPoint x="870" y="270" as="sourcePoint" />
            <mxPoint x="1110" y="240" as="targetPoint" />
            <Array as="points">
              <mxPoint x="770" y="240" />
            </Array>
          </mxGeometry>
        </mxCell>
        <mxCell id="6da-uUpZBTQ7iaTcaTkT-106" value="&lt;font style=&quot;font-size: 14px&quot;&gt;&lt;b&gt;&lt;span&gt;Container ID&lt;br&gt;and&lt;br&gt;&lt;/span&gt;&lt;span&gt;Raw&amp;nbsp; Data&amp;nbsp;&lt;/span&gt;&lt;/b&gt;&lt;/font&gt;" style="text;html=1;align=center;verticalAlign=middle;resizable=0;points=[];autosize=1;" vertex="1" parent="1">
          <mxGeometry x="100" y="200" width="100" height="50" as="geometry" />
        </mxCell>
        <mxCell id="6da-uUpZBTQ7iaTcaTkT-107" value="&lt;font style=&quot;font-size: 14px&quot;&gt;&lt;b&gt;Render Ui&lt;/b&gt;&lt;/font&gt;" style="text;html=1;strokeColor=none;fillColor=none;align=center;verticalAlign=middle;whiteSpace=wrap;rounded=0;" vertex="1" parent="1">
          <mxGeometry x="20" y="215" width="40" height="20" as="geometry" />
        </mxCell>
        <mxCell id="6da-uUpZBTQ7iaTcaTkT-108" value="&lt;b&gt;&lt;font style=&quot;font-size: 14px&quot;&gt;Raw Data&lt;/font&gt;&lt;/b&gt;" style="text;html=1;strokeColor=none;fillColor=none;align=center;verticalAlign=middle;whiteSpace=wrap;rounded=0;" vertex="1" parent="1">
          <mxGeometry x="190" y="80" width="70" height="20" as="geometry" />
        </mxCell>
        <mxCell id="6da-uUpZBTQ7iaTcaTkT-112" value="" style="endArrow=classic;html=1;exitX=0.25;exitY=0;exitDx=0;exitDy=0;entryX=1.008;entryY=0.702;entryDx=0;entryDy=0;entryPerimeter=0;" edge="1" parent="1" source="6da-uUpZBTQ7iaTcaTkT-9" target="SU6Ed6Ec--QNHVM8Q3yd-44">
          <mxGeometry width="50" height="50" relative="1" as="geometry">
            <mxPoint x="590" y="350" as="sourcePoint" />
            <mxPoint x="640" y="300" as="targetPoint" />
            <Array as="points">
              <mxPoint x="700" y="196" />
            </Array>
          </mxGeometry>
        </mxCell>
      </root>
    </mxGraphModel>
  </diagram>
</mxfile>
